<?xml version="1.0" encoding="UTF-8"?>
<svg width="18px" height="18px" viewBox="0 0 18 18" version="1.1" xmlns="http://www.w3.org/2000/svg" xmlns:xlink="http://www.w3.org/1999/xlink">
  <g stroke="none" stroke-width="1" fill="none" fill-rule="evenodd">
    <path d="M12.708,6.491 L12.432,6.765 C13.407,7.902 14,9.376 14,10.991 C14,14.581 11.09,17.491 7.5,17.491 C3.91,17.491 1,14.581 1,10.991 C1,7.401 3.91,4.491 7.5,4.491 C9.115,4.491 10.588,5.083 11.725,6.057 L12.001,5.783 L12.001,4.991 L15.999,1 L17.49,2.491 L13.502,6.491 L12.708,6.491 Z M7.5,6.491 C5.014,6.491 3,8.505 3,10.991 C3,13.476 5.014,15.491 7.5,15.491 C9.985,15.491 12,13.476 12,10.991 C12,8.505 9.985,6.491 7.5,6.491 L7.5,6.491 Z" id="Shape" fill="#999999" transform="translate(9.245000, 9.245500) scale(1, -1) translate(-9.245000, -9.245500) "></path>
  </g>
</svg>
